<?xml version="1.0" standalone="no"?>
<!DOCTYPE svg PUBLIC "-//W3C//DTD SVG 20010904//EN"
 "http://www.w3.org/TR/2001/REC-SVG-20010904/DTD/svg10.dtd">
<svg version="1.0" xmlns="http://www.w3.org/2000/svg"
 width="579.000000pt" height="579.000000pt" viewBox="0 0 579.000000 579.000000"
 preserveAspectRatio="xMidYMid meet">
<metadata>
Created by potrace 1.11, written by Peter Selinger 2001-2013
</metadata>
<g transform="translate(0.000000,579.000000) scale(0.100000,-0.100000)"
fill="#000000" stroke="none">
<path d="M2810 5580 c-314 -9 -458 -19 -780 -55 -418 -48 -530 -76 -667 -168
-65 -43 -78 -68 -44 -86 15 -8 28 -4 62 21 54 39 154 86 199 93 25 4 18 -1
-28 -19 -92 -37 -182 -87 -182 -101 0 -7 6 -18 14 -24 11 -9 31 -3 93 28 165
83 404 146 648 172 132 13 398 16 960 10 246 -3 403 0 470 8 55 6 210 14 345
17 226 5 252 4 335 -16 50 -12 100 -22 112 -23 11 -1 19 -5 17 -9 -2 -3 -1 -8
3 -11 5 -2 1 -2 -7 1 -65 18 -211 44 -224 39 -17 -7 -22 -42 -7 -52 5 -3 52
-16 104 -29 140 -36 214 -81 191 -117 -15 -25 -95 -48 -199 -59 -61 -6 -200
-24 -310 -40 -110 -16 -253 -36 -318 -44 -497 -64 -1067 -36 -1840 91 -211 34
-230 36 -238 20 -8 -13 -15 -14 -34 -7 -18 7 -28 5 -40 -7 -12 -12 -19 -13
-28 -4 -6 6 -19 11 -30 11 -16 0 -18 -6 -13 -52 7 -64 50 -489 76 -753 126
-1289 152 -1532 165 -1558 17 -32 19 -54 7 -59 -5 -1 -7 -31 -4 -66 4 -52 7
-60 18 -51 11 9 14 44 14 145 0 102 3 136 14 147 12 12 13 27 6 78 -5 35 -16
138 -25 229 -8 91 -22 221 -29 290 -7 69 -12 127 -10 128 1 2 29 -4 61 -13
267 -79 501 -101 963 -91 236 6 298 10 311 22 20 18 48 18 56 -1 4 -12 18 -15
49 -14 42 3 44 4 44 34 l0 31 -450 -4 c-360 -4 -450 -2 -450 8 0 10 39 12 183
8 177 -5 704 5 711 13 2 2 1 19 -1 36 l-5 33 -62 -5 c-244 -21 -605 -26 -696
-9 -30 5 -32 7 -15 14 66 25 351 49 608 51 l167 1 0 46 0 47 -42 -2 c-24 -2
-59 1 -78 4 -30 7 -26 8 35 13 l70 5 3 56 3 56 -128 7 c-192 10 -655 -9 -938
-38 -254 -27 -323 -38 -384 -62 -40 -17 -42 -16 -47 28 -6 61 -60 591 -74 733
-5 50 -16 155 -25 235 -8 80 -15 149 -15 153 0 5 -6 5 -12 1 -10 -6 -10 -5 -1
7 7 8 10 28 7 43 -3 20 -1 27 8 24 7 -3 13 -20 13 -39 0 -41 7 -44 233 -93
254 -55 475 -87 742 -106 185 -14 705 -13 875 0 72 6 247 15 390 20 143 5 296
14 340 20 104 14 236 50 229 61 -3 5 1 7 8 4 7 -3 45 6 83 19 62 21 70 27 70
49 -1 15 1 24 4 22 2 -3 13 2 23 12 17 15 18 14 18 -18 0 -19 -9 -135 -20
-259 -11 -124 -36 -405 -55 -625 -19 -220 -44 -499 -54 -620 -20 -217 -57
-643 -67 -760 -2 -33 -9 -107 -14 -165 -32 -338 -171 -1959 -171 -2003 -3
-119 -100 -228 -258 -287 -109 -42 -243 -60 -440 -60 -102 0 -235 5 -295 10
-60 6 -242 15 -405 20 -460 15 -600 52 -725 191 -48 53 -71 111 -81 199 -23
222 -129 1254 -145 1415 -11 110 -24 247 -31 305 -6 58 -11 120 -12 138 -1 35
-12 43 -21 15 -3 -10 -19 -25 -34 -34 l-28 -16 7 -79 c5 -43 22 -214 39 -379
30 -303 73 -730 90 -905 25 -255 32 -308 45 -345 7 -22 16 -70 19 -106 3 -37
14 -91 24 -121 19 -52 19 -54 0 -68 -17 -13 -18 -19 -7 -42 6 -15 16 -25 22
-21 6 3 7 1 3 -5 -4 -6 -2 -21 4 -32 9 -17 14 -19 26 -9 10 8 11 15 4 24 -8
10 -8 15 1 21 7 4 9 3 5 -4 -3 -6 -1 -14 4 -17 8 -5 5 -14 -7 -27 -18 -20 -17
-21 33 -67 103 -94 253 -151 451 -171 116 -11 740 -30 1004 -30 256 0 416 28
526 93 18 10 30 23 27 28 -3 5 0 8 8 7 7 -2 12 2 11 9 -2 7 3 10 11 7 16 -6
40 21 31 35 -3 6 0 8 8 5 9 -3 19 6 27 28 8 18 29 51 47 73 58 68 87 141 86
215 0 57 85 1064 302 3570 36 410 68 780 71 823 6 75 6 78 -15 84 -16 4 -20
10 -16 22 4 9 12 28 17 44 8 22 16 27 37 25 24 -3 26 0 29 40 8 114 -117 182
-428 231 -240 39 -812 55 -1370 41z m600 -71 c-25 -4 -205 -7 -400 -6 -195 0
-321 3 -280 7 111 9 734 9 680 -1z m-1393 -65 c-3 -3 -12 -4 -19 -1 -8 3 -5 6
6 6 11 1 17 -2 13 -5z m-522 -272 c-3 -3 -11 0 -18 7 -9 10 -8 11 6 5 10 -3
15 -9 12 -12z m2883 -33 c-94 -49 -831 -139 -1008 -123 l-85 8 125 8 c195 11
403 35 685 79 143 22 265 42 270 44 6 2 19 4 30 4 14 0 9 -6 -17 -20z m87 11
c-3 -5 -12 -10 -18 -10 -7 0 -6 4 3 10 19 12 23 12 15 0z m-3028 -20 c1 -11
-2 -22 -6 -24 -6 -4 -7 26 -2 42 3 8 7 -1 8 -18z m563 -25 c63 -9 120 -18 125
-20 17 -7 -125 7 -205 20 -107 18 -55 18 80 0z m-223 -1 c-3 -3 -12 -4 -19 -1
-8 3 -5 6 6 6 11 1 17 -2 13 -5z m2470 -80 c-3 -3 -12 -4 -19 -1 -8 3 -5 6 6
6 11 1 17 -2 13 -5z m-1534 -31 c-29 -2 -77 -2 -105 0 -29 2 -6 3 52 3 58 0
81 -1 53 -3z m120 -10 c-13 -2 -33 -2 -45 0 -13 2 -3 4 22 4 25 0 35 -2 23 -4z
m37 -1013 c-88 -13 -942 -46 -870 -34 46 7 275 34 320 37 104 8 602 4 550 -3z
m-953 -51 c-92 -13 -186 -39 -255 -70 -76 -34 -72 -34 -72 -10 0 31 88 62 240
85 14 2 52 3 85 3 l60 1 -58 -9z m718 -28 c-13 -12 -104 -21 -110 -10 -5 7 25
13 95 17 14 1 20 -2 15 -7z m-233 -32 c10 -7 9 -9 -5 -9 -9 0 -59 -10 -110
-22 -72 -17 -98 -28 -119 -51 -16 -16 -28 -34 -28 -41 0 -9 -25 -10 -97 -4
-112 9 -123 11 -200 40 l-56 21 29 15 c47 25 124 43 214 51 116 10 355 10 372
0z m-35 -45 c-3 -3 -12 -4 -19 -1 -8 3 -5 6 6 6 11 1 17 -2 13 -5z m-664 -32
c-2 -6 22 -23 52 -38 30 -14 55 -28 55 -29 0 -6 -145 36 -153 44 -10 10 21 43
37 38 6 -3 10 -9 9 -15z m124 -2404 c-3 -8 -6 -5 -6 6 -1 11 2 17 5 13 3 -3 4
-12 1 -19z m3 -468 c0 -5 -5 -10 -11 -10 -5 0 -7 5 -4 10 3 6 8 10 11 10 2 0
4 -4 4 -10z m271 -515 c41 -19 69 -34 62 -35 -23 0 -128 43 -149 61 -26 24
-41 25 -23 2 13 -16 12 -17 -3 -4 -10 7 -16 17 -13 21 2 4 -4 15 -15 25 -39
35 -19 36 23 1 24 -20 77 -51 118 -71z m-150 58 c13 -16 12 -17 -3 -4 -17 13
-22 21 -14 21 2 0 10 -8 17 -17z m63 -78 c-4 -8 -11 -12 -16 -9 -6 4 -5 10 3
15 19 12 19 11 13 -6z m1591 -105 c-27 -5 -102 -8 -165 -7 l-115 1 120 6 c66
3 140 6 165 7 l45 0 -50 -7z m-1078 -16 c-3 -3 -12 -4 -19 -1 -8 3 -5 6 6 6
11 1 17 -2 13 -5z"/>
<path d="M1273 5163 c-4 -9 12 -202 36 -428 23 -225 80 -777 127 -1225 46
-448 100 -968 119 -1155 20 -187 69 -662 110 -1055 41 -393 72 -731 69 -751
-16 -94 69 -217 195 -283 193 -101 378 -135 941 -171 486 -31 747 -11 984 76
146 53 336 194 336 250 0 9 -6 22 -14 28 -12 10 -30 -2 -95 -62 -157 -144
-325 -204 -641 -228 -197 -15 -793 9 -990 40 -404 64 -617 162 -634 293 -4 24
-35 324 -71 668 -62 598 -103 994 -146 1405 -11 105 -28 276 -39 380 -27 267
-153 1484 -196 1884 -19 184 -37 338 -40 343 -9 15 -44 9 -51 -9z"/>
<path d="M4372 5038 c-8 -8 -12 -48 -12 -113 0 -146 -62 -1010 -73 -1021 -1
-2 -25 8 -52 21 -97 47 -279 72 -685 95 -102 6 -222 13 -267 16 l-83 6 0 -56
0 -56 132 7 c98 5 129 3 124 -5 -4 -7 -33 -12 -70 -12 -35 0 -91 -3 -125 -6
l-61 -7 0 -48 0 -47 163 -2 c89 0 178 -5 197 -9 l35 -8 -40 -6 c-22 -3 -80 -9
-130 -12 -49 -3 -120 -8 -157 -11 l-68 -6 0 -34 0 -34 73 6 c250 19 486 56
502 78 7 9 53 15 165 19 85 3 184 12 218 20 35 8 60 11 55 7 -11 -11 -203 -55
-349 -80 -153 -26 -341 -48 -484 -55 -175 -9 -180 -10 -180 -46 l0 -31 73 6
c39 3 113 8 162 11 128 9 335 33 440 51 80 14 151 30 357 79 53 12 57 12 49
-3 -4 -10 -11 -64 -15 -122 -3 -58 -11 -150 -16 -205 -5 -55 -17 -181 -25
-280 -8 -99 -18 -211 -21 -248 l-6 -69 31 16 c17 9 31 18 31 20 0 3 42 482 60
681 5 61 25 310 44 555 62 787 68 933 40 944 -20 8 -18 8 -32 -6z m-354 -1160
c28 -6 52 -15 52 -19 0 -8 -76 -15 -103 -10 -4 1 -16 -3 -26 -9 -14 -7 -20 -6
-24 4 -3 8 -3 17 1 21 4 4 8 11 8 16 1 5 2 12 3 15 0 3 9 3 19 -1 9 -3 41 -11
70 -17z m-501 -144 c-3 -3 -12 -4 -19 -1 -8 3 -5 6 6 6 11 1 17 -2 13 -5z"/>
<path d="M1671 2826 c-1 -127 -3 -142 -22 -162 -12 -13 -19 -32 -17 -46 3 -22
4 -22 37 12 l34 35 -6 120 c-10 185 -25 210 -26 41z"/>
<path d="M4219 2811 c-25 -25 -29 -37 -29 -85 0 -60 14 -102 38 -111 11 -4 13
1 8 27 -17 81 -18 115 -2 130 16 17 33 68 21 68 -3 0 -20 -13 -36 -29z"/>
<path d="M4238 2736 c-3 -14 -1 -31 3 -38 6 -8 9 1 9 25 0 42 -6 48 -12 13z"/>
<path d="M4176 2586 c-3 -28 -13 -134 -21 -236 -23 -271 -54 -630 -65 -750
-13 -135 -38 -447 -49 -620 -8 -125 -3 -180 16 -180 28 1 34 24 43 176 6 87
24 319 41 514 16 195 34 405 39 465 11 130 38 437 49 550 7 79 7 80 -20 106
l-27 25 -6 -50z"/>
<path d="M2970 770 c-270 -10 -473 -30 -719 -71 -230 -39 -265 -49 -269 -75
-6 -43 17 -46 149 -20 305 62 525 84 954 97 512 15 630 -4 831 -132 34 -21 59
-18 69 9 14 36 -118 114 -260 152 -146 40 -393 53 -755 40z"/>
</g>
</svg>
